#!OML:ASF H:\Dans Jumps\Project 1\Capture day 1\Session 1\subject.ASF
:FULLY-SPECIFIED
:DEGREES
404
root 0.212271 17.3242 -6.49447 8.3331 -0.0165157 -0.732359
lowerback 3.92802 0.234537 -0.784511
upperback 5.45153 0.270305 1.23421
thorax 3.40297 0.0793304 1.70858
lowerneck -12.5272 -0.00452685 -1.25503
upperneck 34.0826 0.0200532 0.929486
head 13.5986 -0.0255231 0.594572
rclavicle -3.97569e-016 -5.96354e-015
rhumerus -44.3512 -24.7303 -63.0392
rradius 22.887
rwrist 38.1606
rhand -19.397 -21.7908
rfingers 7.12502
rthumb 6.92195 -51.6576
lclavicle -3.97569e-016 -5.96354e-015
lhumerus -37.2717 2.9585 79.7114
lradius 20.8778
lwrist 15.4488
lhand -27.6356 -7.20281
lfingers 7.12502
lthumb -1.03401 22.7744
rfemur -22.5471 -3.14876 18.9671
rtibia 35.4423
rfoot -19.6386 -1.48513
rtoes 6.815
lfemur -21.512 5.88138 -19.1717
ltibia 32.3551
lfoot -15.9899 9.06917
ltoes 1.35142
405
root 0.209967 17.3254 -6.49 8.3235 -0.000460687 -0.724549
lowerback 3.90507 0.223206 -0.78075
upperback 5.44201 0.25528 1.23922
thorax 3.40645 0.0719 1.71183
lowerneck -12.4994 0.0028213 -1.26483
upperneck 34.1216 0.0352437 0.922991
head 13.6094 -0.0212162 0.596195
rclavicle -1.59028e-015 -8.15017e-015
rhumerus -44.2452 -24.6073 -63.2508
rradius 22.9831
rwrist 37.9803
rhand -19.4461 -21.8195
rfingers 7.12502
rthumb 6.87448 -51.6879
lclavicle -1.59028e-015 -8.15017e-015
lhumerus -37.2029 2.88564 79.8266
lradius 20.9506
lwrist 15.5121
lhand -27.6394 -7.15658
lfingers 7.12502
lthumb -1.0376 22.8206
rfemur -22.5 -3.15249 18.9664
rtibia 35.4123
rfoot -19.6446 -1.49219
rtoes 6.82054
lfemur -21.4631 5.88058 -19.1681
ltibia 32.3111
lfoot -15.9897 9.0521
ltoes 1.34583
406
root 0.2077 17.3265 -6.48561 8.31544 0.0128142 -0.716106
lowerback 3.87992 0.212441 -0.780736
upperback 5.43399 0.240894 1.24638
thorax 3.41271 0.0645731 1.71941
lowerneck -12.4811 0.0118981 -1.27114
upperneck 34.1619 0.054932 0.90842
head 13.6229 -0.0155738 0.594698
rclavicle -2.08724e-015 -4.77083e-015
rhumerus -44.1453 -24.4727 -63.456
rradius 23.0814
rwrist 37.8032
rhand -19.5007 -21.8314
rfingers 7.12502
rthumb 6.82179 -51.7015
lclavicle -2.08724e-015 -4.77083e-015
lhumerus -37.1426 2.79518 79.9552
lradius 20.98
lwrist 15.5171
lhand -27.8101 -7.41373
lfingers 7.12502
lthumb -1.20249 22.5626
rfemur -22.457 -3.15649 18.9649
rtibia 35.3846
rfoot -19.6491 -1.49821
rtoes 6.81827
lfemur -21.4178 5.88044 -19.1658
ltibia 32.2714
lfoot -15.9917 9.0372
ltoes 1.34719
407
root 0.205473 17.3274 -6.4814 8.30846 0.0224311 -0.710965
lowerback 3.85425 0.202701 -0.7805
upperback 5.42694 0.227788 1.25648
thorax 3.42022 0.0578137 1.72988
lowerneck -12.4713 0.0215983 -1.27297
upperneck 34.2058 0.077902 0.88381
head 13.6398 -0.00926552 0.588951
rclavicle -2.48481e-015 -6.16232e-015
rhumerus -44.0525 -24.331 -63.6502
rradius 23.1737
rwrist 37.6496
rhand -19.5834 -21.8147
rfingers 7.12502
rthumb 6.742 -51.6874
lclavicle -2.48481e-015 -6.16232e-015
lhumerus -37.0944 2.69847 80.0893
lradius 20.9775
lwrist 15.4671
lhand -28.1076 -7.92403
lfingers 7.12502
lthumb -1.4898 22.0505
rfemur -22.4186 -3.15734 18.9668
rtibia 35.3596
rfoot -19.6503 -1.50465
rtoes 6.80728
lfemur -21.3758 5.88171 -19.1604
ltibia 32.2352
lfoot -15.9936 9.02467
ltoes 1.35231
408
root 0.203271 17.3283 -6.47722 8.30068 0.0296997 -0.70728
lowerback 3.82688 0.193872 -0.779024
upperback 5.42274 0.215899 1.26631
thorax 3.43163 0.0516671 1.73939
lowerneck -12.4694 0.0313822 -1.26824
upperneck 34.2512 0.10157 0.852715
head 13.6593 -0.00267783 0.579597
rclavicle 2.98177e-016 1.98785e-015
rhumerus -43.9614 -24.2038 -63.8307
rradius 23.2593
rwrist 37.4945
rhand -19.6304 -21.7937
rfingers 7.12502
rthumb 6.69662 -51.6678
lclavicle 2.98177e-016 1.98785e-015
lhumerus -37.0538 2.59832 80.2235
lradius 20.9319
lwrist 15.343
lhand -28.5484 -8.74317
lfingers 7.12502
lthumb -1.91558 21.228
rfemur -22.381 -3.15662 18.9701
rtibia 35.3367
rfoot -19.6507 -1.5118
rtoes 6.79491
lfemur -21.3335 5.88379 -19.1534
ltibia 32.2012
lfoot -15.9973 9.01256
ltoes 1.36681
409
root 0.20112 17.3291 -6.47305 8.29054 0.0330684 -0.703565
lowerback 3.79997 0.18609 -0.777912
upperback 5.42103 0.205387 1.27554
thorax 3.44533 0.0461741 1.74848
lowerneck -12.4747 0.0420456 -1.25925
upperneck 34.3012 0.127371 0.816174
head 13.6823 0.00463903 0.567677
rclavicle -7.95139e-016 -1.19271e-015
rhumerus -43.8732 -24.0964 -63.9922
rradius 23.3349
rwrist 37.3532
rhand -19.6447 -21.7816
rfingers 7.12502
rthumb 6.68278 -51.6561
lclavicle -7.95139e-016 -1.19271e-015
lhumerus -37.019 2.50773 80.3492
lradius 20.8619
lwrist 15.1726
lhand -29.054 -9.72469
lfingers 7.12502
lthumb -2.4039 20.2415
rfemur -22.3426 -3.1531 18.9726
rtibia 35.3162
rfoot -19.6511 -1.5186
rtoes 6.7858
lfemur -21.2883 5.88573 -19.1466
ltibia 32.1684
lfoot -16.0018 9.00434
ltoes 1.38727
410
root 0.199016 17.3298 -6.46887 8.27841 0.0338636 -0.70077
lowerback 3.77271 0.179031 -0.774276
upperback 5.42226 0.195896 1.28273
thorax 3.46227 0.0412852 1.75405
lowerneck -12.4688 0.0519742 -1.26087
upperneck 34.3397 0.149942 0.793943
head 13.6979 0.0110991 0.56273
rclavicle -2.08724e-015 -1.39149e-015
rhumerus -43.7979 -24.0396 -64.1118
rradius 23.3792
rwrist 37.3152
rhand -19.6963 -21.7022
rfingers 7.12502
rthumb 6.63297 -51.5783
lclavicle -2.08724e-015 -1.39149e-015
lhumerus -36.9828 2.44834 80.4472
lradius 20.8075
lwrist 15.0195
lhand -29.4561 -10.522
lfingers 7.12502
lthumb -2.79215 19.4394
rfemur -22.3032 -3.14784 18.9756
rtibia 35.2978
rfoot -19.6527 -1.52431
rtoes 6.78151
lfemur -21.241 5.88729 -19.1392
ltibia 32.1367
lfoot -16.0049 9.00115
ltoes 1.39693
411
root 0.196994 17.3304 -6.4647 8.26487 0.0330169 -0.694995
lowerback 3.7464 0.172259 -0.771477
upperback 5.4243 0.186839 1.28691
thorax 3.47951 0.036641 1.75697
lowerneck -12.4511 0.0616678 -1.26984
upperneck 34.3699 0.169917 0.783587
head 13.7071 0.0170686 0.563332
rclavicle -2.78299e-015 -9.74045e-015
rhumerus -43.7303 -24.0001 -64.2186
rradius 23.4231
rwrist 37.276
rhand -19.7221 -21.6428
rfingers 7.12502
rthumb 6.60813 -51.5197
lclavicle -2.78299e-015 -9.74045e-015
lhumerus -36.9412 2.43547 80.5058
lradius 20.7961
lwrist 14.9412
lhand -29.6379 -10.8882
lfingers 7.12502
lthumb -2.96775 19.0709
rfemur -22.2633 -3.14406 18.9748
rtibia 35.2826
rfoot -19.6588 -1.52616
rtoes 6.78668
lfemur -21.1928 5.88708 -19.1353
ltibia 32.1068
lfoot -16.008 9.00328
ltoes 1.39678
412
root 0.19498 17.3309 -6.4606 8.25102 0.029944 -0.68923
lowerback 3.72099 0.166753 -0.767305
upperback 5.4273 0.179529 1.28882
thorax 3.49717 0.0329593 1.75676
lowerneck -12.4193 0.0701643 -1.28852
upperneck 34.3865 0.185469 0.788056
head 13.7072 0.0218736 0.570761
rclavicle -2.98177e-015 -1.0138e-014
rhumerus -43.6669 -23.9677 -64.3248
rradius 23.4832
rwrist 37.1834
rhand -19.6745 -21.6443
rfingers 7.12502
rthumb 6.65408 -51.5198
lclavicle -2.98177e-015 -1.0138e-014
lhumerus -36.8891 2.4732 80.5202
lradius 20.845
lwrist 14.9732
lhand -29.5254 -10.6718
lfingers 7.12502
lthumb -2.85916 19.2888
rfemur -22.2249 -3.13902 18.9738
rtibia 35.2708
rfoot -19.6685 -1.52608
rtoes 6.79706
lfemur -21.1456 5.88589 -19.1315
ltibia 32.0797
lfoot -16.0107 9.00993
ltoes 1.39161
413
root 0.192921 17.3311 -6.45671 8.2372 0.025284 -0.682505
lowerback 3.69969 0.162736 -0.763791
upperback 5.4288 0.174242 1.28885
thorax 3.5109 0.0303415 1.75493
lowerneck -12.3754 0.0757992 -1.31427
upperneck 34.3941 0.194782 0.803458
head 13.7006 0.0245437 0.582763
rclavicle -2.68359e-015 -9.34288e-015
rhumerus -43.6084 -23.9086 -64.453
rradius 23.5804
rwrist 36.9739
rhand -19.5618 -21.7312
rfingers 7.12502
rthumb 6.76283 -51.6032
lclavicle -2.68359e-015 -9.34288e-015
lhumerus -36.8306 2.55232 80.4953
lradius 20.9518
lwrist 15.117
lhand -29.1231 -9.91685
lfingers 7.12502
lthumb -2.47058 20.0486
rfemur -22.19 -3.13204 18.9721
rtibia 35.2631
rfoot -19.6804 -1.52743
rtoes 6.79929
lfemur -21.1014 5.88424 -19.1285
ltibia 32.0564
lfoot -16.013 9.01968
ltoes 1.37842
414
root 0.190843 17.3313 -6.45293 8.22268 0.020011 -0.673416
lowerback 3.68156 0.159998 -0.761221
upperback 5.43058 0.170703 1.28627
thorax 3.52307 0.0286286 1.75093
lowerneck -12.3357 0.0795335 -1.33753
upperneck 34.4021 0.200252 0.820064
head 13.6952 0.0260346 0.594241
rclavicle -4.17448e-015 -9.14409e-015
rhumerus -43.556 -23.8301 -64.5961
rradius 23.705
rwrist 36.6829
rhand -19.3932 -21.8741
rfingers 7.12502
rthumb 6.92555 -51.7409
lclavicle -4.17448e-015 -9.14409e-015
lhumerus -36.7776 2.60822 80.4765
lradius 21.0398
lwrist 15.2506
lhand -28.8039 -9.29944
lfingers 7.12502
lthumb -2.16231 20.6694
rfemur -22.1564 -3.12608 18.9683
rtibia 35.2586
rfoot -19.6947 -1.52921
rtoes 6.79984
lfemur -21.0593 5.88197 -19.1279
ltibia 32.0372
lfoot -16.0155 9.03043
ltoes 1.36794
415
root 0.188741 17.3313 -6.44936 8.20835 0.00954231 -0.664908
lowerback 3.66687 0.158942 -0.760021
upperback 5.43247 0.169384 1.2834
thorax 3.53336 0.0279891 1.74736
lowerneck -12.3085 0.0818313 -1.35631
upperneck 34.4167 0.204135 0.832062
head 13.6955 0.0267752 0.602937
rclavicle 1.09332e-015 4.77083e-015
rhumerus -43.5122 -23.7481 -64.7342
rradius 23.8287
rwrist 36.4034
rhand -19.2495 -22.0142
rfingers 7.12502
rthumb 7.06436 -51.8763
lclavicle 1.09332e-015 4.77083e-015
lhumerus -36.733 2.63641 80.4698
lradius 21.1024
lwrist 15.3549
lhand -28.6094 -8.90853
lfingers 7.12502
lthumb -1.97448 21.0621
rfemur -22.1268 -3.11536 18.9649
rtibia 35.2572
rfoot -19.7081 -1.53069
rtoes 6.79992
lfemur -21.0207 5.88102 -19.1267
ltibia 32.0228
lfoot -16.0174 9.04411
ltoes 1.35617
416
root 0.186753 17.3312 -6.44578 8.19294 -0.000340384 -0.657003
lowerback 3.65196 0.158243 -0.755826
upperback 5.4371 0.168589 1.27931
thorax 3.54659 0.0277139 1.74087
lowerneck -12.3002 0.0822803 -1.36497
upperneck 34.4417 0.206026 0.834794
head 13.7048 0.0266997 0.605987
rclavicle -1.68967e-015 -6.55989e-015
rhumerus -43.4722 -23.6726 -64.8653
rradius 23.9449
rwrist 36.1383
rhand -19.126 -22.139
rfingers 7.12502
rthumb 7.18355 -51.9971
lclavicle -1.68967e-015 -6.55989e-015
lhumerus -36.6961 2.62486 80.4833
lradius 21.1161
lwrist 15.3859
lhand -28.6266 -8.90848
lfingers 7.12502
lthumb -1.99112 21.062
rfemur -22.0968 -3.10861 18.9621
rtibia 35.2579
rfoot -19.7225 -1.53055
rtoes 6.79463
lfemur -20.983 5.8778 -19.125
ltibia 32.0128
lfoot -16.0211 9.05845
ltoes 1.34903
417
root 0.184826 17.3309 -6.44232 8.17805 -0.0118617 -0.652749
lowerback 3.63656 0.156702 -0.74969
upperback 5.44357 0.166615 1.27757
thorax 3.56208 0.0268439 1.73573
lowerneck -12.3112 0.0846767 -1.3628
upperneck 34.4774 0.213672 0.821425
head 13.723 0.028334 0.601698
rclavicle 1.78906e-015 6.75868e-015
rhumerus -43.4279 -23.5839 -64.9985
rradius 24.0551
rwrist 35.8743
rhand -19.0212 -22.2542
rfingers 7.12502
rthumb 7.28468 -52.1088
lclavicle 1.78906e-015 6.75868e-015
lhumerus -36.665 2.59622 80.5101
lradius 21.0852
lwrist 15.3457
lhand -28.8175 -9.23225
lfingers 7.12502
lthumb -2.17544 20.7364
rfemur -22.0692 -3.09914 18.963
rtibia 35.2608
rfoot -19.737 -1.53123
rtoes 6.79169
lfemur -20.9484 5.87308 -19.1192
ltibia 32.0074
lfoot -16.0257 9.07523
ltoes 1.35246
